HIERARCHY
ROOT Hips
{
	OFFSET	0.00	0.00	0.00
	CHANNELS 6 Xposition Yposition Zposition Zrotation Xrotation Yrotation
	JOINT LeftHip
	{
		OFFSET	 3.430000	 0.000000	 0.000000
		CHANNELS 3 Zrotation Xrotation Yrotation
		JOINT LeftKnee
		{
			OFFSET	 0.000000	-18.469999	 0.000000
			CHANNELS 3 Zrotation Xrotation Yrotation
			JOINT LeftAnkle
			{
				OFFSET	 0.000000	-17.950001	 0.000000
				CHANNELS 3 Zrotation Xrotation Yrotation
				End Site 
				{
					OFFSET	 0.000000	-3.119996	 0.000000
				}
			}
		}
	}
	JOINT RightHip
	{
		OFFSET	-3.430000	 0.000000	 0.000000
		CHANNELS 3 Zrotation Xrotation Yrotation
		JOINT RightKnee
		{
			OFFSET	 0.000000	-18.809999	 0.000000
			CHANNELS 3 Zrotation Xrotation Yrotation
			JOINT RightAnkle
			{
				OFFSET	 0.000000	-17.570000	 0.000000
				CHANNELS 3 Zrotation Xrotation Yrotation
				End Site 
				{
					OFFSET	 0.000000	-3.250000	 0.000000
				}
			}
		}
	}
	JOINT Chest
	{
		OFFSET	 0.000000	 4.570000	 0.000000
		CHANNELS 3 Zrotation Xrotation Yrotation
		JOINT LeftCollar
		{
			OFFSET	 1.060000	 15.330000	 1.760000
			CHANNELS 3 Zrotation Xrotation Yrotation
			JOINT LeftShoulder
			{
				OFFSET	 5.810000	 0.000000	 0.000000
				CHANNELS 3 Zrotation Xrotation Yrotation
				JOINT LeftElbow
				{
					OFFSET	 0.000000	-12.080000	 0.000000
					CHANNELS 3 Zrotation Xrotation Yrotation
					JOINT LeftWrist
					{
						OFFSET	 0.000000	-9.820000	 0.000000
						CHANNELS 3 Zrotation Xrotation Yrotation
						End Site 
						{
							OFFSET	 0.000000	-7.369996	 0.000000
						}
					}
				}
			}
		}
		JOINT RightCollar
		{
			OFFSET	-1.060000	 15.330000	 1.760000
			CHANNELS 3 Zrotation Xrotation Yrotation
			JOINT RightShoulder
			{
				OFFSET	-6.060000	 0.000000	 0.000000
				CHANNELS 3 Zrotation Xrotation Yrotation
				JOINT RightElbow
				{
					OFFSET	 0.000000	-11.900000	 0.000000
					CHANNELS 3 Zrotation Xrotation Yrotation
					JOINT RightWrist
					{
						OFFSET	 0.000000	-9.520000	 0.000000
						CHANNELS 3 Zrotation Xrotation Yrotation
						End Site 
						{
							OFFSET	 0.000000	-7.140012	 0.000000
						}
					}
				}
			}
		}
		JOINT Neck
		{
			OFFSET	 0.000000	 17.620001	 0.000000
			CHANNELS 3 Zrotation Xrotation Yrotation
			JOINT Head
			{
				OFFSET	 0.000000	 5.190000	 0.000000
				CHANNELS 3 Zrotation Xrotation Yrotation
				End Site 
				{
					OFFSET	 0.000000	 4.140008	 0.000000
				}
			}
		}
	}
}

MOTION
Frames: 21
Frame Time: 0.033333
-45.4922 1.6348 -39.9607 0.0553886 -2.2439 46.2955 12.6531 -3.77656 14.8025 3.0378 5.49732 -4.47121 -17.5156 4.06128 -1.85596 -1.71397 2.67548 -30.6608 -7.90804 6.41795 8.35433 4.11979 -7.0775 0.0210605 5.75141 1.93694 7.33241 0 0 0 11.6035 -2.12107 7.63106 -85.8386 -47.571 -60.9124 40.3587 -13.8652 -4.08142 0 0 0 -10.4854 -16.0735 0.933392 62.4351 -59.0393 48.1542 -41.7544 -27.1283 13.3883 0 0 0 -4.5332 11.6926 40.4915 
-45.4922 1.6348 -39.9598 0.0537271 -2.24963 46.2978 12.6621 -3.76924 14.8115 3.05157 5.49267 -4.47981 -17.5309 4.05655 -1.86728 -1.70639 2.68595 -30.6528 -7.90545 6.41717 8.35985 4.11555 -7.0846 0.00443385 5.76037 1.92969 7.31117 0 0 0 11.5784 -2.02975 7.57488 -85.81 -47.6403 -60.894 40.3432 -13.8975 -4.09775 0 0 0 -10.4638 -15.9979 0.927212 62.4521 -59.0345 48.195 -41.7338 -27.1247 13.3908 0 0 0 -4.55182 11.6943 40.527 
-45.4922 1.6348 -39.9592 0.0544047 -2.24799 46.3118 12.6614 -3.76786 14.8074 3.0625 5.49071 -4.47548 -17.5396 4.05382 -1.8798 -1.70093 2.68989 -30.6625 -7.90862 6.4144 8.36574 4.11046 -7.0934 -0.000302314 5.77167 1.91648 7.2932 0 0 0 11.583 -1.95519 7.59865 -85.81 -47.6216 -60.8739 40.327 -13.9054 -4.12602 0 0 0 -10.4573 -15.9303 0.912756 62.4142 -59.0168 48.1619 -41.7228 -27.1281 13.3725 0 0 0 -4.57048 11.7008 40.5405 
-45.4947 1.6348 -39.9563 0.0538417 -2.24926 46.3219 12.6636 -3.76589 14.8041 3.07085 5.48805 -4.47093 -17.5469 4.0605 -1.88884 -1.69294 2.68383 -30.6671 -7.91553 6.42488 8.36642 4.1049 -7.1035 -0.00161238 5.7824 1.908 7.28016 0 0 0 11.5628 -1.88469 7.60334 -85.7859 -47.6092 -60.8634 40.3232 -13.9149 -4.15154 0 0 0 -10.4369 -15.8526 0.89629 62.3932 -58.9973 48.1593 -41.7191 -27.1263 13.3591 0 0 0 -4.58382 11.7054 40.5501 
-45.4972 1.6348 -39.9538 0.0619165 -2.25819 46.333 12.6724 -3.75306 14.8081 3.07758 5.48067 -4.47198 -17.5625 4.06587 -1.90189 -1.68523 2.69388 -30.6616 -7.91749 6.43776 8.36532 4.09961 -7.1166 -0.0168297 5.80368 1.90749 7.26205 0 0 0 11.5432 -1.75947 7.61161 -85.7535 -47.5965 -60.8269 40.3105 -13.9317 -4.19398 0 0 0 -10.4187 -15.6976 0.868806 62.3864 -58.981 48.1736 -41.7183 -27.131 13.3281 0 0 0 -4.61733 11.7172 40.5675 
-45.4998 1.6323 -39.9488 0.0699882 -2.26711 46.344 12.6821 -3.73368 14.8216 3.08414 5.47431 -4.48198 -17.5738 4.06355 -1.91141 -1.66657 2.7207 -30.6538 -7.92466 6.4317 8.36673 4.09114 -7.1377 -0.0253968 5.82491 1.90892 7.25265 0 0 0 11.5367 -1.61966 7.59805 -85.721 -47.5893 -60.7969 40.2776 -13.912 -4.25297 0 0 0 -10.3923 -15.5056 0.8352 62.3567 -58.9692 48.1642 -41.7148 -27.1344 13.2801 0 0 0 -4.64404 11.7191 40.5766 
-45.5048 1.6273 -39.9463 0.0780572 -2.27603 46.3551 12.6879 -3.72176 14.8344 3.10323 5.47477 -4.48671 -17.5878 4.06339 -1.93637 -1.6558 2.73851 -30.6543 -7.92367 6.43382 8.37633 4.08058 -7.1486 -0.0467635 5.85233 1.90707 7.24433 0 0 0 11.5341 -1.46391 7.54768 -85.6794 -47.5731 -60.7597 40.2804 -13.8873 -4.31558 0 0 0 -10.3509 -15.2804 0.844145 62.257 -58.9686 48.0935 -41.7288 -27.1419 13.2126 0 0 0 -4.67303 11.7287 40.5904 
-45.5073 1.6223 -39.9438 0.0879865 -2.28409 46.3667 12.6951 -3.71487 14.8358 3.11029 5.47391 -4.48278 -17.6061 4.06805 -1.94881 -1.64201 2.75202 -30.6635 -7.92984 6.43288 8.38507 4.06837 -7.1589 -0.0516023 5.87608 1.91519 7.22426 0 0 0 11.5228 -1.32022 7.4972 -85.6318 -47.5584 -60.7359 40.2888 -13.8495 -4.36813 0 0 0 -10.3174 -15.0398 0.860891 62.1618 -58.9609 48.0216 -41.762 -27.1683 13.1117 0 0 0 -4.70136 11.7272 40.6075 
-45.5123 1.6172 -39.9413 0.0992405 -2.28719 46.3692 12.6985 -3.70008 14.8468 3.10831 5.46626 -4.47881 -17.6109 4.07773 -1.95645 -1.63314 2.76278 -30.6636 -7.93689 6.43081 8.39077 4.05929 -7.1643 -0.0546265 5.90167 1.9214 7.23369 0 0 0 11.5219 -1.18069 7.47239 -85.5746 -47.4876 -60.6849 40.2984 -13.8152 -4.42372 0 0 0 -10.3073 -14.8009 0.855384 62.0675 -58.9508 47.936 -41.8044 -27.1773 13.011 0 0 0 -4.72758 11.7336 40.5972 
-45.5173 1.6122 -39.9388 0.107425 -2.29639 46.3517 12.7156 -3.68363 14.8758 3.10751 5.46361 -4.48612 -17.6239 4.08472 -1.95888 -1.62293 2.77573 -30.6414 -7.9307 6.43429 8.39607 4.04367 -7.16929 -0.0659153 5.92527 1.94469 7.23799 0 0 0 11.5049 -1.00667 7.39015 -85.4963 -47.4788 -60.6304 40.3133 -13.7962 -4.48237 0 0 0 -10.2771 -14.5375 0.869438 62.0295 -58.9405 47.9269 -41.8752 -27.1691 12.9203 0 0 0 -4.74705 11.7306 40.6124 
-45.5198 1.6047 -39.9362 0.116653 -2.3031 46.334 12.7335 -3.67126 14.904 3.1048 5.46131 -4.50047 -17.6442 4.08314 -1.95065 -1.61261 2.79681 -30.6239 -7.92354 6.42677 8.40168 4.02634 -7.17439 -0.0693429 5.94958 1.96832 7.23479 0 0 0 11.5069 -0.843561 7.3244 -85.4208 -47.4617 -60.551 40.3279 -13.7908 -4.53262 0 0 0 -10.2655 -14.3089 0.888362 61.9616 -58.9377 47.8668 -41.9274 -27.1692 12.8309 0 0 0 -4.76379 11.7353 40.6399 
-45.5248 1.5997 -39.9312 0.116689 -2.30273 46.3168 12.7569 -3.67349 14.9266 3.09026 5.46679 -4.51438 -17.6486 4.08677 -1.93643 -1.6028 2.809 -30.6105 -7.91676 6.41447 8.40982 4.0092 -7.17979 -0.0664208 5.96805 1.98664 7.21786 0 0 0 11.4956 -0.668781 7.2694 -85.3374 -47.445 -60.4767 40.3516 -13.8131 -4.57477 0 0 0 -10.2417 -14.1227 0.922381 61.83 -58.9327 47.7539 -41.9521 -27.1676 12.759 0 0 0 -4.77672 11.7332 40.6741 
-45.5298 1.5972 -39.9262 0.110586 -2.29712 46.2922 12.7864 -3.6921 14.9402 3.07198 5.48126 -4.51308 -17.6563 4.09262 -1.91679 -1.59148 2.79952 -30.6016 -7.91433 6.41109 8.42265 3.99528 -7.17959 -0.0737785 5.99284 2.00021 7.20081 0 0 0 11.4594 -0.523508 7.227 -85.2504 -47.4369 -60.3947 40.388 -13.8616 -4.60612 0 0 0 -10.2362 -13.9753 0.957443 61.7291 -58.9196 47.6634 -41.9724 -27.1732 12.7059 0 0 0 -4.79708 11.7367 40.7167 
-45.5323 1.5972 -39.9212 0.104407 -2.29157 46.2678 12.8228 -3.72123 14.9379 3.04101 5.51097 -4.49864 -17.6567 4.09496 -1.89785 -1.57356 2.79761 -30.584 -7.91774 6.40179 8.4225 3.97931 -7.1863 -0.0598703 6.0044 2.01313 7.17285 0 0 0 11.4262 -0.398011 7.22937 -85.1867 -47.4489 -60.3358 40.3847 -13.9057 -4.64059 0 0 0 -10.2354 -13.864 0.96378 61.7197 -58.898 47.6666 -41.99 -27.1727 12.6668 0 0 0 -4.80092 11.7317 40.7702 
-45.5374 1.5946 -39.9162 0.0937285 -2.28881 46.2403 12.864 -3.75598 14.9458 3.02217 5.54657 -4.4983 -17.6662 4.09281 -1.87779 -1.55923 2.7931 -30.5671 -7.91786 6.40527 8.42165 3.97139 -7.1975 -0.0479781 6.0222 2.02682 7.153 0 0 0 11.4033 -0.293348 7.2309 -85.1419 -47.4547 -60.2706 40.3945 -13.9594 -4.66898 0 0 0 -10.2367 -13.8105 0.96881 61.7023 -58.8776 47.6566 -42.0066 -27.155 12.6559 0 0 0 -4.80815 11.7406 40.8074 
-45.5399 1.5946 -39.9086 0.0816496 -2.28988 46.2163 12.9161 -3.79542 14.9454 3.00248 5.59086 -4.49462 -17.6819 4.09775 -1.86016 -1.53718 2.79383 -30.5569 -7.91609 6.40782 8.423 3.96016 -7.2109 -0.0337671 6.038 2.04224 7.12145 0 0 0 11.3711 -0.207925 7.24855 -85.1128 -47.4772 -60.2335 40.4069 -14.01 -4.69877 0 0 0 -10.232 -13.7811 0.993194 61.6597 -58.869 47.6196 -42.0071 -27.165 12.6462 0 0 0 -4.81359 11.7472 40.846 
-45.5424 1.5946 -39.9011 0.0625623 -2.28963 46.192 12.9652 -3.84473 14.9499 2.98389 5.63939 -4.49781 -17.6907 4.09989 -1.83981 -1.50908 2.7932 -30.5458 -7.92028 6.39988 8.42438 3.95483 -7.2193 -0.0204622 6.05593 2.04381 7.10154 0 0 0 11.3362 -0.164365 7.27873 -85.0954 -47.4953 -60.2131 40.4151 -14.0498 -4.72351 0 0 0 -10.2402 -13.7897 1.01177 61.6116 -58.874 47.5651 -41.9822 -27.1909 12.6408 0 0 0 -4.81976 11.7556 40.8754 
-45.5449 1.5997 -39.8935 0.0460223 -2.2872 46.1689 13.0114 -3.88725 14.9499 2.9709 5.68742 -4.48834 -17.6999 4.10141 -1.8332 -1.48644 2.79832 -30.5386 -7.9207 6.38489 8.43339 3.96061 -7.2229 -0.022176 6.07085 2.04066 7.07311 0 0 0 11.2995 -0.122693 7.31652 -85.0988 -47.529 -60.2099 40.4093 -14.0879 -4.75132 0 0 0 -10.245 -13.7878 1.03904 61.5871 -58.873 47.5531 -41.9753 -27.2172 12.6239 0 0 0 -4.83137 11.7549 40.9081 
-45.5449 1.6022 -39.8885 0.0294 -2.28493 46.1457 13.0523 -3.92733 14.9568 2.9735 5.72673 -4.48463 -17.7252 4.09604 -1.82226 -1.46021 2.79819 -30.534 -7.92716 6.37223 8.44505 3.96969 -7.2283 -0.0263091 6.09197 2.02478 7.05233 0 0 0 11.2563 -0.100768 7.33701 -85.0866 -47.5648 -60.1939 40.4032 -14.1227 -4.77329 0 0 0 -10.2653 -13.7892 1.04801 61.5854 -58.8621 47.5559 -41.9691 -27.2493 12.6 0 0 0 -4.84882 11.7642 40.9351 
-45.5424 1.6047 -39.8835 0.0181041 -2.29229 46.1255 13.0911 -3.95187 14.9678 2.98064 5.75869 -4.49001 -17.7506 4.09824 -1.82106 -1.43582 2.80785 -30.519 -7.93419 6.37315 8.4495 3.97011 -7.2408 -0.0244953 6.10943 2.0129 7.02155 0 0 0 11.2213 -0.0790406 7.37511 -85.0901 -47.5771 -60.1922 40.4138 -14.1552 -4.7946 0 0 0 -10.2834 -13.7907 1.06068 61.5996 -58.8517 47.5814 -41.9652 -27.2668 12.5706 0 0 0 -4.86107 11.7715 40.9674 
-45.5399 1.6072 -39.881 0.00735633 -2.30356 46.0964 13.1234 -3.95299 14.9961 2.99109 5.77234 -4.50368 -17.7736 4.09076 -1.81122 -1.40124 2.82306 -30.4968 -7.94473 6.36575 8.46034 3.97748 -7.2537 -0.0349799 6.13086 2.00865 7.01863 0 0 0 11.1831 -0.0859805 7.38651 -85.0935 -47.5742 -60.1908 40.4522 -14.1812 -4.80475 0 0 0 -10.3194 -13.8131 1.04709 61.601 -58.8491 47.5903 -41.9493 -27.2745 12.5419 0 0 0 -4.88069 11.7761 40.9742 
